<?xml version="1.0" encoding="utf-8"?>
<!-- Generator: Adobe Illustrator 24.3.0, SVG Export Plug-In . SVG Version: 6.00 Build 0)  -->
<svg version="1.1" id="Layer_1" xmlns="http://www.w3.org/2000/svg" xmlns:xlink="http://www.w3.org/1999/xlink" x="0px" y="0px"
	 viewBox="0 0 64 64" style="enable-background:new 0 0 64 64;" xml:space="preserve">
<style type="text/css">
	.st0{fill:#FFFFFF;stroke:#000000;stroke-width:3;stroke-miterlimit:10;}
	.st1{fill:#E85250;}
	.st2{fill:#ED1C24;stroke:#000000;stroke-width:3;stroke-miterlimit:10;}
</style>
<path class="st0" d="M61.86,41.69c0,2.45-1.96,4.45-4.41,4.49c-4.63,0.07-11.73,0.65-15.43,3.3c-3.73,2.67-7.62,12.29-9.84,12.29
	c-2.01,0-7.78-9.95-11.63-12.95c-3.25-2.53-9.1-3-13.19-2.97c-2.51,0.02-4.56-1.99-4.56-4.5V9.36c0-2.49,2.01-4.5,4.5-4.5h50.07
	c2.48,0,4.5,2.01,4.5,4.49C61.87,17.28,61.86,33.7,61.86,41.69z"/>
<g id="Layer_3">
	<path class="st1" d="M15.14,28.32v1.22c0,0.13-0.11,0.24-0.24,0.24h-4.01c-0.13,0-0.24-0.11-0.24-0.24v-8.63
		c0-0.13,0.11-0.24,0.24-0.24h1.25c0.13,0,0.24,0.11,0.24,0.24v6.94c0,0.13,0.11,0.24,0.24,0.24h2.29
		C15.03,28.08,15.14,28.19,15.14,28.32z"/>
</g>
<g id="Layer_2_1_">
	<path class="st1" d="M22.7,25.85v0.98c0,0.13-0.1,0.23-0.23,0.23h-3.93c-0.13,0-0.23-0.1-0.23-0.23v-0.98
		c0-0.13,0.1-0.23,0.23-0.23h3.93C22.6,25.62,22.7,25.72,22.7,25.85z"/>
	<path class="st1" d="M22.37,27.82c-0.56,1.23-1.79,2.09-3.23,2.09c-2.02,0-3.64-1.68-3.55-3.72c0.09-1.87,1.67-3.38,3.54-3.38
		c1.54,0,2.85,0.98,3.35,2.35c0.02,0.06-0.02,0.12-0.09,0.12h-1.53c-0.03,0-0.05-0.01-0.07-0.04c-0.36-0.53-0.97-0.88-1.66-0.88
		c-1.18,0-2.12,1.02-1.98,2.23c0.1,0.89,0.81,1.62,1.69,1.74c0.69,0.1,1.33-0.16,1.75-0.61c0.02-0.02,0.04-0.03,0.06-0.03l1.63,0
		C22.35,27.7,22.4,27.76,22.37,27.82z"/>
</g>
<g id="Layer_4">
	<path class="st1" d="M27.24,22.9h-0.75c-1.5,0-2.71,1.21-2.71,2.71v3.93c0,0.13,0.11,0.24,0.24,0.24h1.2
		c0.13,0,0.24-0.11,0.24-0.24v-3.62c0-0.79,0.61-1.47,1.39-1.5c0.81-0.02,1.48,0.63,1.48,1.44v3.68c0,0.13,0.11,0.24,0.24,0.24h1.15
		c0.13,0,0.24-0.11,0.24-0.24v-3.93C29.95,24.12,28.74,22.9,27.24,22.9z"/>
</g>
<g id="Layer_5">
	<path class="st1" d="M30.64,23.35l1.96,6.26c0.03,0.1,0.12,0.17,0.23,0.17h1.1c0.1,0,0.2-0.07,0.23-0.17l1.22-4.22l1.3,4.22
		c0.03,0.1,0.12,0.17,0.23,0.17h1.02c0.1,0,0.19-0.07,0.23-0.17l1.97-6.26c0.05-0.15-0.07-0.31-0.23-0.31h-1.28
		c-0.11,0-0.2,0.07-0.23,0.17l-1.09,3.97l-1.18-3.98c-0.03-0.1-0.12-0.17-0.23-0.17h-1.06c-0.1,0-0.2,0.07-0.23,0.17l-1.14,3.92
		l-1.11-3.92c-0.03-0.1-0.12-0.17-0.23-0.17h-1.26C30.71,23.05,30.59,23.2,30.64,23.35z"/>
</g>
<g id="Layer_6">
	<path class="st1" d="M43.65,25.73h2.37c-0.29-0.72-0.98-1.22-1.79-1.22c-1.07,0-1.94,0.88-1.94,1.97c0,1.09,0.87,1.97,1.94,1.97
		c0.53,0,1.01-0.21,1.35-0.56c0.05-0.05,0.1-0.07,0.17-0.07h1.39c0.18,0,0.3,0.19,0.21,0.35c-0.61,1.09-1.78,1.83-3.13,1.83
		c-1.97,0-3.57-1.57-3.57-3.51c0-1.94,1.6-3.51,3.57-3.51s3.57,1.57,3.57,3.51c0,0.16-0.01,0.31-0.03,0.46
		c-0.02,0.12-0.12,0.2-0.23,0.2h-3.87c-0.13,0-0.24-0.11-0.24-0.24v-0.94C43.41,25.84,43.52,25.73,43.65,25.73z"/>
</g>
<g id="Layer_7">
	<path class="st1" d="M50.14,29.78h-1.18c-0.13,0-0.24-0.11-0.24-0.24v-8.69c0-0.13,0.11-0.24,0.24-0.24h1.18
		c0.13,0,0.24,0.11,0.24,0.24v8.69C50.38,29.68,50.27,29.78,50.14,29.78z"/>
	<path class="st1" d="M53.11,29.78h-1.18c-0.13,0-0.24-0.11-0.24-0.24v-8.69c0-0.13,0.11-0.24,0.24-0.24h1.18
		c0.13,0,0.24,0.11,0.24,0.24v8.69C53.35,29.68,53.24,29.78,53.11,29.78z"/>
</g>
<path class="st2" d="M40.71,36.09"/>
</svg>
