<?xml version="1.0" encoding="utf-8"?>
<!-- Generator: Adobe Illustrator 24.3.0, SVG Export Plug-In . SVG Version: 6.00 Build 0)  -->
<svg version="1.1" id="Layer_1" xmlns="http://www.w3.org/2000/svg" xmlns:xlink="http://www.w3.org/1999/xlink" x="0px" y="0px"
	 viewBox="0 0 222 65" style="enable-background:new 0 0 222 65;" xml:space="preserve">
<style type="text/css">
	.st0{fill:#E9504F;}
</style>
<g id="Layer_3">
	<path class="st0" d="M41.1,44.1v5.1c0,0.6-0.4,1-1,1H23.2c-0.5,0-1-0.4-1-1V12.8c0-0.6,0.5-1,1-1h5.3c0.6,0,1,0.4,1,1v29.3
		c0,0.6,0.4,1,1,1h9.7C40.7,43.1,41.1,43.5,41.1,44.1z"/>
</g>
<g id="Layer_2_1_">
	<path class="st0" d="M73,33.7v4.1c0,0.5-0.4,1-1,1H55.5c-0.5,0-1-0.4-1-1v-4.1c0-0.5,0.4-1,1-1h16.6C72.6,32.7,73,33.1,73,33.7z"/>
	<path class="st0" d="M71.6,42c-2.3,5.2-7.6,8.8-13.6,8.8c-8.5,0-15.3-7.1-15-15.7c0.4-7.9,7.1-14.3,14.9-14.3
		c6.5,0,12,4.1,14.1,9.9c0.1,0.2-0.1,0.5-0.4,0.5h-6.4c-0.1,0-0.2-0.1-0.3-0.2c-1.5-2.2-4.1-3.7-7-3.7c-5,0-8.9,4.3-8.4,9.4
		c0.4,3.7,3.4,6.8,7.1,7.4c2.9,0.4,5.6-0.7,7.4-2.6c0.1-0.1,0.2-0.1,0.3-0.1l6.9,0C71.6,41.4,71.8,41.7,71.6,42z"/>
</g>
<g id="Layer_4">
	<path class="st0" d="M92.2,21.2H89c-6.3,0-11.4,5.1-11.4,11.4v16.6c0,0.6,0.4,1,1,1h5.1c0.6,0,1-0.4,1-1V34c0-3.3,2.6-6.2,5.9-6.3
		c3.4-0.1,6.2,2.6,6.2,6.1v15.5c0,0.6,0.4,1,1,1h4.8c0.6,0,1-0.4,1-1V32.7C103.6,26.4,98.5,21.2,92.2,21.2z"/>
</g>
<g id="Layer_5">
	<path class="st0" d="M106.5,23.1l8.2,26.4c0.1,0.4,0.5,0.7,0.9,0.7h4.6c0.4,0,0.8-0.3,1-0.7l5.1-17.8l5.5,17.8
		c0.1,0.4,0.5,0.7,1,0.7h4.3c0.4,0,0.8-0.3,0.9-0.7l8.3-26.4c0.2-0.6-0.3-1.3-0.9-1.3h-5.4c-0.4,0-0.8,0.3-1,0.7l-4.6,16.8l-5-16.8
		c-0.1-0.4-0.5-0.7-1-0.7h-4.5c-0.4,0-0.8,0.3-1,0.7l-4.8,16.6l-4.7-16.5c-0.1-0.4-0.5-0.7-1-0.7h-5.3
		C106.8,21.8,106.3,22.5,106.5,23.1z"/>
</g>
<g id="Layer_6">
	<path class="st0" d="M161.4,33.2h10c-1.2-3-4.1-5.2-7.6-5.2c-4.5,0-8.2,3.7-8.2,8.3c0,4.6,3.7,8.3,8.2,8.3c2.2,0,4.2-0.9,5.7-2.4
		c0.2-0.2,0.4-0.3,0.7-0.3h5.9c0.8,0,1.3,0.8,0.9,1.5c-2.6,4.6-7.5,7.7-13.2,7.7c-8.3,0-15.1-6.6-15.1-14.8
		c0-8.2,6.7-14.8,15.1-14.8s15.1,6.6,15.1,14.8c0,0.7,0,1.3-0.1,1.9c-0.1,0.5-0.5,0.8-1,0.8h-16.3c-0.6,0-1-0.4-1-1v-3.9
		C160.4,33.6,160.9,33.2,161.4,33.2z"/>
</g>
<g id="Layer_7">
	<path class="st0" d="M188.8,50.3h-5c-0.6,0-1-0.4-1-1V12.6c0-0.6,0.4-1,1-1h5c0.6,0,1,0.4,1,1v36.7
		C189.8,49.8,189.3,50.3,188.8,50.3z"/>
	<path class="st0" d="M201.3,50.3h-5c-0.6,0-1-0.4-1-1V12.6c0-0.6,0.4-1,1-1h5c0.6,0,1,0.4,1,1v36.7
		C202.3,49.8,201.8,50.3,201.3,50.3z"/>
</g>
</svg>
